<svg width="23" height="23" viewBox="0 0 23 23" fill="none" xmlns="http://www.w3.org/2000/svg">
<path fill-rule="evenodd" clip-rule="evenodd" d="M10.529 5.03702V12.11C10.529 12.2201 10.5547 12.3287 10.604 12.4271C10.6533 12.5255 10.7248 12.6111 10.813 12.677L16.366 16.815C16.4405 16.8705 16.5251 16.9108 16.6151 16.9335C16.7052 16.9563 16.7988 16.9611 16.8907 16.9477C16.9826 16.9343 17.0709 16.9029 17.1507 16.8553C17.2304 16.8078 17.3 16.745 17.3555 16.6705C17.411 16.596 17.4513 16.5114 17.474 16.4214C17.4968 16.3313 17.5016 16.2377 17.4882 16.1458C17.4748 16.054 17.4434 15.9656 17.3958 15.8859C17.3483 15.8061 17.2855 15.7365 17.211 15.681L11.943 11.759V5.04102C11.943 4.85337 11.8685 4.67342 11.7358 4.54074C11.6031 4.40806 11.4231 4.3335 11.2355 4.3335C11.0479 4.3335 10.8679 4.40806 10.7352 4.54074C10.6025 4.67342 10.528 4.85337 10.528 5.04102L10.529 5.03702ZM11.608 1C9.50979 1.0002 7.45874 1.62257 5.71423 2.78842C3.96972 3.95427 2.6101 5.61125 1.80728 7.5498C1.00446 9.48836 0.794512 11.6214 1.20398 13.6793C1.61344 15.7372 2.62393 17.6275 4.10766 19.1111C5.5914 20.5946 7.48174 21.605 9.53966 22.0142C11.5976 22.4235 13.7306 22.2133 15.6691 21.4103C17.6076 20.6073 19.2644 19.2476 20.4301 17.503C21.5958 15.7583 22.218 13.7072 22.218 11.609C22.2167 8.79556 21.0984 6.09774 19.1089 4.10843C17.1194 2.11911 14.4215 1.00106 11.608 1Z" fill="#FFFF00"/>
</svg>
