<svg width="18" height="18" viewBox="0 0 18 18" fill="none" xmlns="http://www.w3.org/2000/svg">
<path d="M15.482 17.3751H2.88901C2.38802 17.3751 1.90754 17.1761 1.55329 16.8218C1.19903 16.4676 1.00001 15.9871 1.00001 15.4861V10.1341C0.996632 10.0493 1.01041 9.96473 1.04052 9.88541C1.07064 9.80608 1.11646 9.73366 1.17525 9.67249C1.23404 9.61131 1.30457 9.56264 1.38263 9.52939C1.46069 9.49614 1.54467 9.479 1.62951 9.479C1.71436 9.479 1.79833 9.49614 1.87639 9.52939C1.95444 9.56264 2.02499 9.61131 2.08377 9.67249C2.14256 9.73366 2.18839 9.80608 2.2185 9.88541C2.24861 9.96473 2.26239 10.0493 2.25901 10.1341V15.4861C2.25901 15.6532 2.32538 15.8134 2.44353 15.9316C2.56168 16.0497 2.72193 16.1161 2.88901 16.1161H15.482C15.6491 16.1161 15.8093 16.0497 15.9275 15.9316C16.0456 15.8134 16.112 15.6532 16.112 15.4861V10.1341C16.1086 10.0493 16.1224 9.96473 16.1525 9.88541C16.1826 9.80608 16.2285 9.73366 16.2872 9.67249C16.346 9.61131 16.4166 9.56264 16.4946 9.52939C16.5727 9.49614 16.6567 9.479 16.7415 9.479C16.8264 9.479 16.9103 9.49614 16.9884 9.52939C17.0664 9.56264 17.137 9.61131 17.1958 9.67249C17.2546 9.73366 17.3004 9.80608 17.3305 9.88541C17.3606 9.96473 17.3744 10.0493 17.371 10.1341V15.4861C17.371 15.9871 17.172 16.4676 16.8177 16.8218C16.4635 17.1761 15.983 17.3751 15.482 17.3751Z" fill="black"/>
<path d="M12.334 5.41105C12.2511 5.41145 12.169 5.39549 12.0923 5.36409C12.0156 5.33269 11.9458 5.28646 11.887 5.22805L9.187 2.52005L6.48698 5.22805C6.36843 5.3466 6.20765 5.4132 6.03999 5.4132C5.87234 5.4132 5.71154 5.3466 5.59299 5.22805C5.47444 5.1095 5.40784 4.94871 5.40784 4.78105C5.40784 4.61339 5.47444 4.4526 5.59299 4.33405L8.741 1.18605C8.79955 1.12709 8.86919 1.0803 8.94591 1.04837C9.02262 1.01644 9.10489 1 9.18799 1C9.27108 1 9.35335 1.01644 9.43007 1.04837C9.50678 1.0803 9.57644 1.12709 9.63499 1.18605L12.783 4.33405C12.8717 4.42217 12.9322 4.5347 12.9568 4.65731C12.9813 4.77992 12.9689 4.90707 12.9209 5.02256C12.873 5.13805 12.7918 5.23667 12.6876 5.30585C12.5834 5.37504 12.461 5.41166 12.336 5.41105H12.334Z" fill="black"/>
<path d="M9.18604 13.9122C9.01895 13.9122 8.85869 13.8458 8.74054 13.7276C8.62239 13.6095 8.55603 13.4493 8.55603 13.2822V1.94817C8.56251 1.78556 8.63168 1.63176 8.74902 1.519C8.86637 1.40624 9.02277 1.34326 9.18552 1.34326C9.34826 1.34326 9.50469 1.40624 9.62204 1.519C9.73938 1.63176 9.80855 1.78556 9.81503 1.94817V13.2822C9.81503 13.4493 9.74864 13.6095 9.63049 13.7276C9.51235 13.8458 9.35211 13.9122 9.18503 13.9122H9.18604Z" fill="black"/>
</svg>
