<svg width="21" height="21" viewBox="0 0 21 21" fill="none" xmlns="http://www.w3.org/2000/svg">
<g clip-path="url(#clip0_36_20)">
<path d="M16.8839 16.3178L14.1626 13.5887C14.9729 12.6548 15.4141 11.4557 15.403 10.2179C15.4044 9.53235 15.2707 8.85334 15.0098 8.21975C14.7489 7.58617 14.3657 7.0105 13.8824 6.52577C13.3991 6.04105 12.8251 5.6568 12.1933 5.3951C11.5616 5.1334 10.8845 4.99939 10.201 5.00075C9.51867 4.99148 8.84135 5.11875 8.20864 5.37515C7.57594 5.63154 7.00057 6.01191 6.51619 6.49397C6.03181 6.97603 5.64814 7.55013 5.38763 8.18268C5.12712 8.81522 4.99499 9.49352 4.99899 10.1779C4.99748 11.1735 5.2805 12.1488 5.81454 12.9881C6.34858 13.8274 7.11128 14.4957 8.01229 14.9137C8.91331 15.3318 9.9149 15.4821 10.8985 15.3469C11.8821 15.2118 12.8064 14.7967 13.5621 14.151L16.2833 16.8802C16.3194 16.9183 16.3628 16.9487 16.4109 16.9695C16.4591 16.9902 16.5109 17.0009 16.5633 17.0009C16.6158 17.0009 16.6676 16.9902 16.7158 16.9695C16.7639 16.9487 16.8073 16.9183 16.8434 16.8802C16.8878 16.8495 16.9248 16.8091 16.9517 16.7621C16.9785 16.7152 16.9944 16.6627 16.9983 16.6088C17.0022 16.5548 16.9939 16.5006 16.9741 16.4502C16.9543 16.3999 16.9235 16.3546 16.8839 16.3178ZM10.2016 14.5934C9.33112 14.5934 8.48014 14.3345 7.75633 13.8495C7.03251 13.3644 6.46838 12.675 6.13524 11.8684C5.8021 11.0618 5.71494 10.1743 5.88477 9.31799C6.0546 8.46172 6.47379 7.67517 7.08935 7.05783C7.7049 6.44049 8.48917 6.02008 9.34297 5.84976C10.1968 5.67943 11.0818 5.76685 11.886 6.10095C12.6903 6.43506 13.3777 7.00085 13.8613 7.72676C14.345 8.45268 14.6031 9.30611 14.6031 10.1792C14.6047 10.7593 14.492 11.334 14.2714 11.8703C14.0507 12.4066 13.7266 12.8939 13.3175 13.3041C12.9085 13.7143 12.4227 14.0394 11.8879 14.2607C11.3532 14.4819 10.7801 14.595 10.2016 14.5934Z" fill="black"/>
</g>
<defs>
<clipPath id="clip0_36_20">
<rect width="12" height="12" fill="white" transform="translate(5 5)"/>
</clipPath>
</defs>
</svg>
