<svg width="18" height="18" viewBox="0 0 18 18" fill="none" xmlns="http://www.w3.org/2000/svg">
<g clip-path="url(#clip0_36_16)">
<path d="M11.5445 9.90817C12.1724 9.90817 12.7746 10.178 13.2186 10.6584C13.6626 11.1388 13.912 11.7903 13.912 12.4696V14.9041H4.08801V12.5559C4.08801 11.8539 4.34579 11.1806 4.80465 10.6841C5.26351 10.1877 5.88585 9.90881 6.53477 9.90881L11.5445 9.90817ZM11.5445 10.4533H6.53477C6.01949 10.4533 5.52532 10.6748 5.16096 11.069C4.7966 11.4632 4.59191 11.9978 4.59191 12.5553V14.3596H13.4081V12.469C13.4081 11.9342 13.2118 11.4213 12.8623 11.043C12.5128 10.6648 12.0388 10.4522 11.5445 10.4521V10.4533ZM8.99973 3.09518C9.5063 3.09506 10.0015 3.25746 10.4228 3.56185C10.844 3.86625 11.1724 4.29896 11.3663 4.80526C11.5603 5.31156 11.6111 5.86872 11.5123 6.40626C11.4136 6.9438 11.1697 7.43759 10.8115 7.82516C10.4534 8.21274 9.99701 8.47671 9.50018 8.58367C9.00335 8.69064 8.48836 8.6358 8.02034 8.4261C7.55231 8.2164 7.15228 7.86125 6.87083 7.40557C6.58938 6.94988 6.43916 6.41413 6.43916 5.86607C6.43916 5.1313 6.70891 4.42661 7.18909 3.90698C7.66927 3.38736 8.32057 3.09535 8.99973 3.09518ZM8.99973 3.64035C8.59284 3.64035 8.19509 3.77089 7.85677 4.01545C7.51846 4.26002 7.25478 4.60763 7.09907 5.01432C6.94336 5.42102 6.90262 5.86854 6.982 6.30029C7.06138 6.73204 7.25732 7.12863 7.54503 7.4399C7.83274 7.75117 8.19931 7.96315 8.59837 8.04903C8.99744 8.13491 9.41109 8.09083 9.78701 7.92237C10.1629 7.75391 10.4842 7.46864 10.7103 7.10262C10.9363 6.7366 11.057 6.30628 11.057 5.86607C11.057 5.27577 10.8402 4.70965 10.4544 4.29225C10.0686 3.87485 9.54535 3.64035 8.99973 3.64035Z" fill="black" stroke="black" stroke-width="0.3"/>
</g>
<defs>
<clipPath id="clip0_36_16">
<rect width="10" height="12" fill="white" transform="translate(4 3)"/>
</clipPath>
</defs>
</svg>
