<svg xmlns="http://www.w3.org/2000/svg" width="17.047" height="18.908" viewBox="0 0 17.047 18.908">
  <path id="Path_17430" data-name="Path 17430" d="M225.048,111.065a4.036,4.036,0,0,1,4.036,4.036v3.836H212.337v-3.7a4.171,4.171,0,0,1,4.171-4.171Zm0,.859h-8.54a3.312,3.312,0,0,0-3.312,3.312v2.843h15.029V115.1a3.178,3.178,0,0,0-3.177-3.178ZM220.71,100.33a4.366,4.366,0,1,1-4.365,4.366A4.366,4.366,0,0,1,220.71,100.33Zm0,.859a3.507,3.507,0,1,0,3.507,3.507A3.507,3.507,0,0,0,220.71,101.189Z" transform="translate(-212.187 -100.18)" fill="#fff" stroke="#fff" stroke-width="0.3"/>
</svg>
