<svg width="18" height="18" viewBox="0 0 18 18" fill="none" xmlns="http://www.w3.org/2000/svg">
<mask id="mask0_37_10" style="mask-type:luminance" maskUnits="userSpaceOnUse" x="5" y="4" width="8" height="10">
<path d="M13 4H5V14H13V4Z" fill="white"/>
</mask>
<g mask="url(#mask0_37_10)">
<path d="M12.898 9.28716C12.898 10.1479 12.898 11.0085 12.898 11.869C12.9104 12.2851 12.7868 12.6942 12.545 13.0367C12.3033 13.3791 11.9561 13.637 11.5541 13.7726C11.337 13.8487 11.1084 13.8886 10.8778 13.8906C9.63978 13.902 8.40155 13.9033 7.16316 13.8946C6.72881 13.9046 6.30291 13.7761 5.94958 13.5286C5.59624 13.281 5.3346 12.9278 5.20405 12.5221C5.14133 12.3411 5.10862 12.1515 5.10715 11.9604C5.09997 10.1351 5.10202 8.30925 5.10253 6.48345C5.10253 6.30322 5.16662 6.24097 5.35325 6.24097C5.85469 6.24097 6.35613 6.24097 6.85758 6.24097C7.17085 6.24097 7.15701 6.27461 7.15393 5.95533C7.14625 5.47563 7.33351 5.01258 7.67452 4.66806C8.01553 4.32353 8.48236 4.12576 8.9723 4.11823C9.46224 4.11071 9.93517 4.29406 10.287 4.62794C10.6389 4.96183 10.8409 5.4189 10.8486 5.89861C10.865 6.23997 10.8578 6.24047 11.2075 6.24047C11.6823 6.24047 12.1571 6.24047 12.6319 6.24047C12.8369 6.24047 12.8949 6.29821 12.8949 6.4965C12.8973 7.42655 12.8983 8.35677 12.898 9.28716ZM12.5206 9.40312C12.5206 8.52461 12.5206 7.6461 12.5206 6.76859C12.5206 6.65463 12.4898 6.60644 12.3627 6.60794C11.9146 6.6143 11.4664 6.6143 11.0183 6.60794C10.8891 6.60794 10.8455 6.65112 10.8491 6.77461C10.8553 6.99599 10.8491 7.21788 10.8491 7.43927C10.8491 7.54871 10.8122 7.64007 10.685 7.65614C10.5579 7.6722 10.48 7.59188 10.4774 7.44429C10.4738 7.21838 10.4733 6.99248 10.4774 6.76608C10.48 6.6481 10.4333 6.60794 10.3118 6.60845C9.44187 6.61213 8.57195 6.61213 7.70203 6.60845C7.56462 6.60845 7.52309 6.65563 7.52719 6.78264C7.53386 6.99499 7.53027 7.20834 7.52719 7.4217C7.52719 7.57481 7.45849 7.65563 7.33902 7.65714C7.21956 7.65864 7.15496 7.58184 7.15342 7.4227C7.15342 7.20985 7.15342 6.9965 7.15342 6.78365C7.15342 6.62401 7.1406 6.61095 6.98063 6.61095C6.5455 6.61095 6.11054 6.61095 5.67575 6.61095C5.47887 6.61095 5.47785 6.61096 5.47785 6.80473C5.47785 8.48713 5.47785 10.1695 5.47785 11.8519C5.46946 12.0732 5.50775 12.2939 5.59035 12.5001C5.67294 12.7063 5.79806 12.8936 5.95789 13.0503C6.11772 13.207 6.30883 13.3298 6.51929 13.411C6.72975 13.4921 6.95505 13.53 7.18111 13.5221C8.38805 13.5221 9.59517 13.5211 10.8025 13.5191C10.9755 13.5228 11.1482 13.5022 11.3152 13.4578C11.6733 13.3661 11.9885 13.1569 12.2082 12.8651C12.4278 12.5733 12.5386 12.2165 12.5221 11.8544C12.5221 11.0382 12.5221 10.2209 12.5221 9.40262L12.5206 9.40312ZM8.98435 6.23897C9.42785 6.23897 9.87187 6.23495 10.3174 6.23897C10.442 6.23897 10.4871 6.1973 10.4769 6.08033C10.4651 5.9463 10.4692 5.81025 10.4487 5.67873C10.4082 5.45161 10.3125 5.23735 10.1698 5.054C10.027 4.87065 9.84133 4.72357 9.62839 4.62516C9.41545 4.52674 9.18147 4.47987 8.94617 4.4885C8.71086 4.49712 8.48111 4.56098 8.27628 4.67471C8.02531 4.81423 7.82108 5.02206 7.68839 5.27299C7.55569 5.52393 7.50023 5.80717 7.52873 6.08836C7.53335 6.20885 7.57539 6.24399 7.69537 6.24248C8.12451 6.23596 8.55469 6.23947 8.98435 6.23897Z" fill="black" stroke="black" stroke-width="0.4"/>
</g>
</svg>
