<svg xmlns="http://www.w3.org/2000/svg" width="15.603" height="19.92" viewBox="0 0 15.603 19.92">
  <path id="Path_17431" data-name="Path 17431" d="M89.633,49.125q0,2.572,0,5.143a3.89,3.89,0,0,1-2.621,3.792,4.02,4.02,0,0,1-1.319.235q-3.622.034-7.245.008a3.91,3.91,0,0,1-3.821-2.734,3.566,3.566,0,0,1-.189-1.119c-.014-3.636-.01-7.273-.009-10.91,0-.359.125-.483.489-.483.978,0,1.956,0,2.934,0,.611,0,.584.067.578-.569a3.6,3.6,0,0,1,7.206-.113c.032.68.018.681.7.681.926,0,1.852,0,2.778,0,.4,0,.513.115.513.51Q89.634,46.345,89.633,49.125Zm-.736.231c0-1.75,0-3.5,0-5.248,0-.227-.06-.323-.308-.32q-1.311.019-2.622,0c-.252,0-.337.086-.33.332.012.441,0,.883,0,1.324,0,.218-.072.4-.32.432s-.4-.128-.405-.422c-.007-.45-.008-.9,0-1.351.005-.235-.086-.315-.323-.314q-2.545.011-5.09,0c-.268,0-.349.094-.341.347.013.423.006.848,0,1.273,0,.305-.134.466-.367.469s-.359-.15-.362-.467c0-.424,0-.849,0-1.273,0-.318-.025-.344-.337-.344q-1.273,0-2.545,0c-.384,0-.386,0-.386.386q0,5.027,0,10.054a3.21,3.21,0,0,0,3.322,3.327q3.531,0,7.063-.006a3.524,3.524,0,0,0,1-.122A3.156,3.156,0,0,0,88.9,54.239Q88.9,51.8,88.9,49.355ZM82,43.053c.865,0,1.731-.008,2.6,0,.243,0,.331-.083.311-.316-.023-.267-.015-.538-.055-.8a2.866,2.866,0,0,0-4.237-2,2.908,2.908,0,0,0-1.458,2.816c.009.24.091.31.325.307C80.323,43.047,81.162,43.054,82,43.053Z" transform="translate(-74.229 -38.593)" fill="#fff" stroke="#fff" stroke-width="0.4"/>
</svg>
