<svg id="Group_4617" data-name="Group 4617" xmlns="http://www.w3.org/2000/svg" width="15.968" height="15.968" viewBox="0 0 15.968 15.968">
  <path id="Path_17390" data-name="Path 17390" d="M572.72,243.552h-7.155a4.41,4.41,0,0,0-4.406,4.407v7.154a4.411,4.411,0,0,0,4.406,4.407h7.155a4.411,4.411,0,0,0,4.407-4.407v-7.154a4.411,4.411,0,0,0-4.407-4.407m2.99,11.558a2.993,2.993,0,0,1-2.99,2.99h-7.155a2.993,2.993,0,0,1-2.99-2.99v-7.154a2.993,2.993,0,0,1,2.99-2.99h7.155a2.993,2.993,0,0,1,2.99,2.99Z" transform="translate(-561.159 -243.552)" fill="#ff0"/>
  <path id="Path_17391" data-name="Path 17391" d="M575.839,254.116a4.114,4.114,0,1,0,4.115,4.115h0a4.119,4.119,0,0,0-4.115-4.114m0,6.812a2.7,2.7,0,1,1,2.7-2.7,2.7,2.7,0,0,1-2.7,2.7" transform="translate(-567.854 -250.247)" fill="#ff0"/>
  <path id="Path_17392" data-name="Path 17392" d="M592.867,250.838a1.039,1.039,0,1,0,.734.3,1.039,1.039,0,0,0-.734-.3" transform="translate(-580.596 -248.17)" fill="#ff0"/>
</svg>
