<svg xmlns="http://www.w3.org/2000/svg" width="11.436" height="14.217" viewBox="0 0 11.436 14.217">
  <path id="Path_17454" data-name="Path 17454" d="M160.754,10.42c-.989-1.413-1.921-2.4-.821-3.44l.713-.77c.247-.266.367-.544.246-.8L159.57,2.648c-.121-.254-.5-.184-.834-.042l-1.911.813c-1.529,1.071.6,6.132,2.107,8.277s5.528,5.882,7.057,4.811l1.417-1.517c.247-.265.443-.6.246-.8L165.507,12a.726.726,0,0,0-.834-.041l-.968.406c-1.354.679-1.962-.535-2.951-1.948Z" transform="translate(-156.298 -2.478)" fill="#ff0" fill-rule="evenodd"/>
</svg>
