<svg id="Слой_3" data-name="Слой 3" xmlns="http://www.w3.org/2000/svg" width="22.894" height="20.209" viewBox="0 0 22.894 20.209">
  <path id="Path_65" data-name="Path 65" d="M10.924,19.665a4.381,4.381,0,0,1-.648-.2L6.791,22.546a2.75,2.75,0,0,1-3.547,0,2.036,2.036,0,0,1,0-3.132l5.321-4.7a2.332,2.332,0,0,1,.816-.47,1.014,1.014,0,0,1,.311-.1,1.922,1.922,0,0,1,.434-.07,2.853,2.853,0,0,1,1,.1,2.694,2.694,0,0,1,.984.54,2.118,2.118,0,0,1,.541.712c.018,0,.044-.008.062-.008a1.3,1.3,0,0,0,.727-.313l1.215-1.073a4.651,4.651,0,0,0-.772-.885,5.2,5.2,0,0,0-2.253-1.143,2.437,2.437,0,0,0-.257-.055,1.161,1.161,0,0,0-.337-.047q-.141-.022-.284-.031a.014.014,0,0,0-.018,0,2.283,2.283,0,0,0-.461-.016,5.522,5.522,0,0,0-.63.039H9.629l-.248.031a6.206,6.206,0,0,0-1.3.4,4.973,4.973,0,0,0-1.286.822l-5.321,4.7a4.072,4.072,0,0,0,0,6.263,5.5,5.5,0,0,0,7.095,0l4.878-4.306A7.171,7.171,0,0,1,10.924,19.665Z" transform="translate(-0.001 -5.2)"/>
  <path id="Path_66" data-name="Path 66" d="M26.139,1.3a5.5,5.5,0,0,0-7.095,0L14.167,5.6a7.182,7.182,0,0,1,3.184.321l3.468-3.061a2.75,2.75,0,0,1,3.547,0,2.036,2.036,0,0,1,0,3.131L20.9,9.056l-.5.438-.505.446-.851.752a2.605,2.605,0,0,1-1.5.634,2.9,2.9,0,0,1-.638-.016,2.163,2.163,0,0,1-.6-.141,2.382,2.382,0,0,1-1.348-1.19,1.334,1.334,0,0,0-.789.321l-1.215,1.073a4.661,4.661,0,0,0,1.774,1.566,3.926,3.926,0,0,0,.594.258,3.94,3.94,0,0,0,.656.2,5.612,5.612,0,0,0,3.556-.321,5.036,5.036,0,0,0,.9-.517l.009-.008c.124-.094.257-.2.372-.3l.443-.391,4.878-4.306a4.071,4.071,0,0,0,0-6.263Z" transform="translate(-4.716 0)"/>
</svg>
