<svg xmlns="http://www.w3.org/2000/svg" width="16.371" height="16.375" viewBox="0 0 16.371 16.375">
  <g id="noun-upload-4855248" transform="translate(-122.5 -52.398)">
    <path id="Path_12832" data-name="Path 12832" d="M136.982,296.621H124.389a1.889,1.889,0,0,1-1.889-1.889V289.38a.63.63,0,1,1,1.259,0v5.352a.63.63,0,0,0,.63.63h12.593a.63.63,0,0,0,.63-.63V289.38a.63.63,0,1,1,1.259,0v5.352a1.889,1.889,0,0,1-1.889,1.889Z" transform="translate(0 -227.848)"/>
    <path id="Path_12833" data-name="Path 12833" d="M251.857,56.809a.63.63,0,0,1-.447-.183l-2.7-2.708-2.7,2.708a.632.632,0,0,1-.894-.894l3.148-3.148a.63.63,0,0,1,.894,0l3.148,3.148a.63.63,0,0,1-.447,1.077Z" transform="translate(-118.023)"/>
    <path id="Path_12834" data-name="Path 12834" d="M333.13,73.844a.63.63,0,0,1-.63-.63V61.88a.63.63,0,0,1,1.259,0V73.214a.63.63,0,0,1-.63.63Z" transform="translate(-202.444 -8.534)"/>
  </g>
</svg>
