<svg xmlns="http://www.w3.org/2000/svg" width="18.111" height="14.712" viewBox="0 0 18.111 14.712">
  <path id="Path_17427" data-name="Path 17427" d="M464.465,247.107a7.427,7.427,0,0,1-2.133.587,3.741,3.741,0,0,0,1.634-2.057,7.41,7.41,0,0,1-2.365.9,3.715,3.715,0,0,0-6.422,2.542,3.877,3.877,0,0,0,.1.846,10.55,10.55,0,0,1-7.66-3.881,3.715,3.715,0,0,0,1.15,4.957,3.66,3.66,0,0,1-1.679-.463v.045a3.725,3.725,0,0,0,2.978,3.647,3.832,3.832,0,0,1-.978.126,3.769,3.769,0,0,1-.7-.065,3.729,3.729,0,0,0,3.47,2.581,7.468,7.468,0,0,1-4.615,1.586,8.012,8.012,0,0,1-.884-.049,10.567,10.567,0,0,0,16.265-8.9l-.011-.481a7.491,7.491,0,0,0,1.857-1.924Z" transform="translate(-446.355 -245.367)" fill="#ff0"/>
</svg>
